<svg viewBox="0 0 300 300" xmlns="http://www.w3.org/2000/svg">
  <rect fill="transparent" width="300px" height="300px" x="0" y="0"/>
  <g
    fill="#303F9F"
    stroke="none"
    transform="matrix(2.7976296273299157,0,0,2.7976296273299157,10.118507961394123,10.118518633504216)"
  >
    <path
      d="M81.834 50.001v-.002.002zm5.61-13.785l-6.786 11.736-13.56.006-6.772-11.738 6.765-11.747 13.568-.009 6.785 11.752zm-30.66 25.521h-13.57l-6.771-11.739 6.771-11.737h13.57l6.772 11.737-6.772 11.739zM43.215 10.681h13.569l6.77 11.744-6.766 11.748H43.204l-6.762-11.74 6.773-11.752zm-9.129 11.75l-.002.002v-.002h.002zm-14.745 2.033l13.561.009 6.769 11.753-6.761 11.721-13.571.002-6.782-11.732 6.784-11.753zm-6.785 39.32l6.793-11.749 13.55-.002 6.778 11.749-6.781 11.745-13.555.007-6.785-11.75zM34.084 77.57zm22.7 11.749H43.215l-6.776-11.756 6.778-11.74h13.565l6.779 11.74-6.777 11.756zm9.131-11.75zm14.744-2.035l-13.555-.007-6.781-11.745 6.771-11.736 13.559-.007 6.791 11.745-6.785 11.75z"
    />
  </g>
</svg>
